# Blender v2.79 (sub 0) OBJ File: ''
# www.blender.org
mtllib vida.mtl
o Cube.001
v 26.034834 27.325039 -85.118668
v 26.169722 -24.629900 -85.274590
v -25.785376 -24.764521 -85.362625
v -25.920250 27.190426 -85.206703
v 25.745081 26.808693 86.675369
v 25.879940 -25.146250 86.519447
v -26.075146 -25.280849 86.431412
v -26.210022 26.674082 86.587334
vn 0.0017 0.0030 -1.0000
vn -0.0017 -0.0030 1.0000
vn 1.0000 0.0026 0.0017
vn 0.0026 -1.0000 -0.0030
vn -1.0000 -0.0026 -0.0017
vn -0.0026 1.0000 0.0030
usemtl Material
s off
f 1//1 2//1 3//1 4//1
f 5//2 8//2 7//2 6//2
f 1//3 5//3 6//3 2//3
f 2//4 6//4 7//4 3//4
f 3//5 7//5 8//5 4//5
f 5//6 1//6 4//6 8//6
o Cube
v 25.996330 -86.843849 -26.585384
v 25.996330 -86.843849 25.369959
v -25.959019 -86.843849 25.369955
v -25.959005 -86.843849 -26.585396
v 25.996342 84.951210 -26.585373
v 25.996313 84.951210 25.369974
v -25.959024 84.951210 25.369949
v -25.959013 84.951210 -26.585386
vn 0.0000 -1.0000 0.0000
vn 0.0000 1.0000 -0.0000
vn 1.0000 0.0000 0.0000
vn -0.0000 -0.0000 1.0000
vn -1.0000 -0.0000 -0.0000
vn 0.0000 0.0000 -1.0000
usemtl Material
s off
f 9//7 10//7 11//7 12//7
f 13//8 16//8 15//8 14//8
f 9//9 13//9 14//9 10//9
f 10//10 14//10 15//10 11//10
f 11//11 15//11 16//11 12//11
f 13//12 9//12 12//12 16//12
